<svg height="480pt" viewBox="0 0 480.00108 480" width="480pt" xmlns="http://www.w3.org/2000/svg"><path d="m352 176c-30.1875-.058594-59.265625 11.351562-81.359375 31.921875-1.121094 1.039063-2.242187 2.078125-3.359375 3.199219-8.941406-2.097656-18.097656-3.144532-27.28125-3.121094-29.386719.027344-57.773438 10.683594-79.921875 30-16.300781 14.167969-28.484375 32.460938-35.277344 52.960938-1.5-1.976563-3.101562-3.871094-4.800781-5.679688v-149.28125h24c17.671875 0 32-14.324219 32-32v-64c0-17.671875-14.328125-32-32-32h-104c-17.671875 0-32 14.328125-32 32v364.320312c.011719 37.375 30.308594 67.667969 67.679688 67.679688h308.320312c23.34375.015625 45.734375-9.253906 62.238281-25.757812 16.507813-16.507813 25.773438-38.898438 25.761719-62.242188v-72h-1.121094c.742188-5.300781 1.113282-10.644531 1.121094-16-.023438-66.265625-53.734375-119.976562-120-120zm-64 208-14.800781 7.441406c-.398438.960938-.800781 1.839844-1.199219 2.800782l5.28125 15.679687-11.359375 11.359375-15.683594-5.28125c-.957031.402344-1.839843.800781-2.796875 1.203125l-7.441406 14.796875h-16l-7.441406-14.796875c-.957032-.402344-1.839844-.800781-2.796875-1.203125l-15.683594 5.28125-11.359375-11.359375 5.28125-15.679687c-.398438-.960938-.800781-1.839844-1.199219-2.800782l-14.800781-7.441406v-16l14.800781-7.4375c.398438-.960938.800781-1.839844 1.199219-2.800781l-5.28125-15.679688 11.359375-11.359375 15.683594 5.277344c.957031-.398438 1.839843-.796875 2.796875-1.199219l7.441406-14.800781h16l7.441406 14.800781c.957032.402344 1.839844.800781 2.796875 1.199219l15.683594-5.277344 11.359375 11.359375-5.28125 15.679688c.398438.960937.800781 1.839843 1.199219 2.800781l14.800781 7.4375zm120-72-14.800781 7.441406c-.398438.960938-.800781 1.839844-1.199219 2.800782l5.28125 15.679687-11.359375 11.359375-15.683594-5.28125c-.957031.402344-1.839843.800781-2.796875 1.203125l-7.441406 14.796875h-16l-7.441406-14.796875c-.957032-.402344-1.839844-.800781-2.796875-1.203125l-15.683594 5.28125-11.359375-11.359375 5.28125-15.679687c-.398438-.960938-.800781-1.839844-1.199219-2.800782l-14.800781-7.441406v-16l14.800781-7.4375c.398438-.960938.800781-1.839844 1.199219-2.800781l-5.28125-15.679688 11.359375-11.359375 15.683594 5.277344c.957031-.398438 1.839843-.796875 2.796875-1.199219l7.441406-14.800781h16l7.441406 14.800781c.957032.402344 1.839844.800781 2.796875 1.199219l15.683594-5.277344 11.359375 11.359375-5.28125 15.679688c.398438.960937.800781 1.839843 1.199219 2.800781l14.800781 7.4375zm0 0" fill="#78b9eb"/><g fill="#1a6fb0"><path d="m480 296c.042969-50.917969-30.125-97.015625-76.808594-117.355469-46.679687-20.339843-100.980468-11.050781-138.246094 23.652344l-.144531.105469c-8.167969-1.609375-16.476562-2.414063-24.800781-2.402344-46.121094.054688-88.753906 24.570312-112 64.402344v-120.402344h16c22.082031-.023438 39.972656-17.917969 40-40v-64c-.027344-22.078125-17.917969-39.9726562-40-40h-104c-22.082031.0273438-39.9726562 17.921875-40 40v364.3125c.046875 41.785156 33.910156 75.644531 75.695312 75.6875h308.304688c52.996094-.054688 95.941406-43.003906 96-96v-72c0-1.101562-.226562-2.191406-.671875-3.199219.445313-4.25.667969-8.523437.671875-12.800781zm-16 20.082031v67.917969c-.046875 44.164062-35.835938 79.953125-80 80h-308.304688c-32.949218-.035156-59.65625-26.734375-59.695312-59.6875v-364.3125c0-13.253906 10.746094-24 24-24h104c13.253906 0 24 10.746094 24 24v32h-68.472656c-3.445313.003906-6.503906-2.203125-7.589844-5.46875l-4.351562-13.058594-15.203126 5.058594 4.351563 13.0625c3.273437 9.808594 12.457031 16.417969 22.792969 16.40625h68.472656v16c0 13.257812-10.746094 24-24 24h-24c-4.417969 0-8 3.582031-8 8v131.679688c-1.367188-.941407-2.65625-1.78125-3.824219-2.503907l-8.351562 13.648438c13.34375 8.289062 23.4375 20.902343 28.601562 35.738281 4.652344 13.917969 4.652344 28.96875 0 42.886719l15.199219 5.105469c5.753906-17.238282 5.753906-35.878907 0-53.113282-2.375-6.96875-5.683594-13.582031-9.839844-19.65625 6.527344-17.65625 17.390625-33.386718 31.589844-45.742187 20.683594-18.03125 47.183594-27.992188 74.625-28.042969 8.558594-.027344 17.09375.945312 25.425781 2.90625.695313.160156 1.410157.234375 2.125.214844 2.128907 4.550781 3.664063 9.355468 4.578125 14.296875 1.246094 7.007812 1.246094 14.183593 0 21.191406l15.742188 2.785156c1.59375-8.867187 1.59375-17.945312 0-26.808593-1.308594-7.242188-3.675782-14.25-7.023438-20.800782 33.371094-27.691406 79.75-33.582031 118.984375-15.113281s64.246094 57.964844 64.167969 101.328125c-.007812 4.988281-.355469 9.964844-1.039062 14.90625-.246094 1.792969.121093 3.617188 1.039062 5.175781zm0 0"/><path d="m360 56h24v88c0 4.417969 3.582031 8 8 8h48c4.417969 0 8-3.582031 8-8v-88h24c3.480469 0 6.558594-2.246094 7.621094-5.558594 1.058594-3.3125-.140625-6.929687-2.972656-8.953125l-56-40c-2.78125-1.984375-6.515626-1.984375-9.296876 0l-56 40c-2.832031 2.023438-4.03125 5.640625-2.972656 8.953125 1.0625 3.3125 4.140625 5.558594 7.621094 5.558594zm56-38.167969 31.039062 22.167969h-7.039062c-4.417969 0-8 3.582031-8 8v88h-32v-88c0-4.417969-3.582031-8-8-8h-7.039062zm0 0"/><path d="m216 56h24v88c0 4.417969 3.582031 8 8 8h48c4.417969 0 8-3.582031 8-8v-88h24c3.480469 0 6.558594-2.246094 7.621094-5.558594 1.058594-3.3125-.140625-6.929687-2.972656-8.953125l-56-40c-2.78125-1.984375-6.515626-1.984375-9.296876 0l-56 40c-2.832031 2.023438-4.03125 5.640625-2.972656 8.953125 1.0625 3.3125 4.140625 5.558594 7.621094 5.558594zm56-38.167969 31.039062 22.167969h-7.039062c-4.417969 0-8 3.582031-8 8v88h-32v-88c0-4.417969-3.582031-8-8-8h-7.039062zm0 0"/><path d="m352 280c-13.253906 0-24 10.746094-24 24 0 13.257812 10.746094 24 24 24s24-10.742188 24-24c0-13.253906-10.746094-24-24-24zm0 32c-4.417969 0-8-3.582031-8-8s3.582031-8 8-8 8 3.582031 8 8-3.582031 8-8 8zm0 0"/><path d="m411.574219 288.800781-10.398438-5.199219 3.671875-11.046874c.960938-2.875.214844-6.046876-1.925781-8.195313l-11.320313-11.308594c-2.144531-2.140625-5.3125-2.886719-8.1875-1.929687l-11.046874 3.671875-5.199219-10.398438c-1.367188-2.703125-4.140625-4.402343-7.167969-4.394531h-16c-3.046875-.015625-5.839844 1.699219-7.199219 4.425781l-5.199219 10.398438-11.007812-3.621094c-2.875-.960937-6.042969-.214844-8.1875 1.925781l-11.316406 11.273438c-2.144532 2.144531-2.890625 5.316406-1.929688 8.191406l3.671875 11.046875-10.398437 5.199219c-2.71875 1.355468-4.433594 4.128906-4.433594 7.160156v16c-.015625 3.046875 1.699219 5.839844 4.425781 7.203125l10.398438 5.199219-3.625 11.007812c-.960938 2.875-.214844 6.046875 1.929687 8.191406l11.320313 11.3125c2.136719 2.148438 5.308593 2.898438 8.183593 1.925782l11.046876-3.671875 5.199218 10.402343c1.347656 2.703126 4.101563 4.414063 7.121094 4.429688h16c3.046875.019531 5.839844-1.699219 7.199219-4.421875l5.199219-10.402344 11.050781 3.671875c2.871093.960938 6.039062.214844 8.183593-1.925781l11.320313-11.3125c2.140625-2.144531 2.886719-5.316406 1.925781-8.191406l-3.671875-11.039063 10.402344-5.210937c2.703125-1.363281 4.402344-4.140625 4.390625-7.167969v-16c.015625-3.046875-1.699219-5.835938-4.425781-7.199219zm-11.574219 18.257813-10.398438 5.207031c-1.800781.898437-3.191406 2.441406-3.90625 4.320313-.296874.800781-.617187 1.597656-.960937 2.351562-.828125 1.832031-.933594 3.910156-.292969 5.816406l3.671875 11.03125-4.320312 4.320313-11.03125-3.679688c-1.925781-.636719-4.019531-.523437-5.867188.3125-.734375.34375-1.496093.648438-2.269531.933594-1.898438.710937-3.457031 2.109375-4.359375 3.921875l-5.203125 10.398438h-6.109375l-5.199219-10.398438c-.90625-1.8125-2.464844-3.210938-4.363281-3.921875-.796875-.285156-1.535156-.589844-2.269531-.933594-1.84375-.84375-3.941406-.957031-5.863282-.3125l-11.035156 3.679688-4.320312-4.328125 3.671875-11.023438c.648437-1.933594.535156-4.039062-.316407-5.886718-.347656-.738282-.648437-1.507813-.9375-2.273438-.710937-1.886719-2.105468-3.433594-3.90625-4.335938l-10.398437-5.199218v-6.113282l10.398437-5.199218c1.800782-.902344 3.195313-2.453125 3.90625-4.335938.296876-.800781.617188-1.601562.960938-2.34375.828125-1.832031.9375-3.910156.292969-5.816406l-3.671875-11.03125 4.320312-4.320312 11.035156 3.679687c1.921876.640625 4.019532.53125 5.863282-.3125.734375-.34375 1.496094-.648437 2.269531-.9375 1.898437-.707031 3.457031-2.109375 4.363281-3.917969l5.199219-10.402344h6.109375l5.203125 10.402344c.902344 1.808594 2.460937 3.210938 4.359375 3.917969.800781.289063 1.535156.59375 2.269531.9375 1.847657.835937 3.941407.949219 5.867188.3125l11.03125-3.679687 4.320312 4.320312-3.671875 11.03125c-.640625 1.921875-.53125 4.011719.3125 5.855469.34375.761719.644532 1.527343.941406 2.304687.710938 1.882813 2.105469 3.433594 3.90625 4.335938l10.398438 5.199218zm0 0"/><path d="m232 352c-13.253906 0-24 10.746094-24 24 0 13.257812 10.746094 24 24 24s24-10.742188 24-24c0-13.253906-10.746094-24-24-24zm0 32c-4.417969 0-8-3.582031-8-8s3.582031-8 8-8 8 3.582031 8 8-3.582031 8-8 8zm0 0"/><path d="m291.574219 360.839844-10.398438-5.199219 3.671875-11.046875c.960938-2.875.214844-6.046875-1.925781-8.191406l-11.320313-11.3125c-2.144531-2.140625-5.3125-2.886719-8.1875-1.929688l-11.046874 3.671875-5.199219-10.398437c-1.355469-2.71875-4.132813-4.433594-7.167969-4.433594h-16c-3.03125 0-5.804688 1.714844-7.160156 4.425781l-5.199219 10.398438-11.046875-3.621094c-2.875-.960937-6.042969-.214844-8.1875 1.925781l-11.316406 11.273438c-2.144532 2.144531-2.890625 5.316406-1.929688 8.191406l3.671875 11.046875-10.398437 5.199219c-2.71875 1.355468-4.433594 4.128906-4.433594 7.160156v16c-.015625 3.046875 1.699219 5.839844 4.425781 7.203125l10.398438 5.199219-3.625 11.007812c-.960938 2.875-.214844 6.046875 1.929687 8.191406l11.320313 11.3125c2.140625 2.140626 5.308593 2.886719 8.183593 1.925782l11.046876-3.671875 5.199218 10.402343c1.347656 2.703126 4.101563 4.414063 7.121094 4.429688h16c3.046875.019531 5.839844-1.699219 7.199219-4.421875l5.199219-10.402344 11.050781 3.671875c2.871093.960938 6.039062.214844 8.183593-1.925781l11.320313-11.3125c2.140625-2.144531 2.886719-5.316406 1.925781-8.191406l-3.671875-11.039063 10.402344-5.210937c2.703125-1.363281 4.402344-4.140625 4.390625-7.167969v-16c0-3.03125-1.710938-5.804688-4.425781-7.160156zm-11.574219 18.21875-10.398438 5.207031c-1.800781.898437-3.191406 2.441406-3.90625 4.320313-.296874.800781-.617187 1.597656-.960937 2.351562-.828125 1.832031-.933594 3.910156-.292969 5.816406l3.671875 11.03125-4.320312 4.320313-11.03125-3.679688c-1.925781-.628906-4.015625-.515625-5.867188.3125-.734375.34375-1.496093.648438-2.269531.933594-1.898438.710937-3.457031 2.109375-4.359375 3.921875l-5.203125 10.398438h-6.109375l-5.199219-10.398438c-.90625-1.8125-2.464844-3.210938-4.363281-3.921875-.796875-.285156-1.535156-.589844-2.269531-.933594-1.84375-.84375-3.941406-.957031-5.863282-.3125l-11.035156 3.679688-4.320312-4.328125 3.671875-11.023438c.648437-1.933594.535156-4.039062-.316407-5.886718-.347656-.738282-.648437-1.507813-.9375-2.273438-.710937-1.886719-2.105468-3.433594-3.90625-4.335938l-10.398437-5.199218v-6.113282l10.398437-5.199218c1.800782-.902344 3.195313-2.453125 3.90625-4.335938.296876-.800781.617188-1.601562.960938-2.34375.828125-1.832031.9375-3.910156.292969-5.816406l-3.671875-11.03125 4.320312-4.320312 11.035156 3.679687c1.921876.636719 4.015626.523437 5.863282-.3125.734375-.34375 1.496094-.648437 2.269531-.9375 1.898437-.707031 3.457031-2.109375 4.363281-3.917969l5.199219-10.402344h6.109375l5.203125 10.402344c.902344 1.808594 2.460937 3.210938 4.359375 3.917969.800781.289063 1.535156.59375 2.269531.9375 1.847657.832031 3.941407.945313 5.867188.3125l11.03125-3.679687 4.320312 4.320312-3.671875 11.03125c-.640625 1.921875-.53125 4.011719.3125 5.855469.34375.761719.644532 1.527343.941406 2.304687.710938 1.882813 2.105469 3.433594 3.90625 4.335938l10.398438 5.199218zm0 0"/></g></svg>